<svg xmlns="http://www.w3.org/2000/svg" xmlns:xlink="http://www.w3.org/1999/xlink" width="500" zoomAndPan="magnify" viewBox="0 0 375 374.999991" height="500" preserveAspectRatio="xMidYMid meet" version="1.0"><defs><clipPath id="6a66dbac93"><path d="M 29.699219 3 L 332.699219 3 L 332.699219 355 L 29.699219 355 Z M 29.699219 3 " clip-rule="nonzero"/></clipPath></defs><g clip-path="url(#6a66dbac93)"><path fill="#f5821f" d="M 3.589844 354.246094 L 354.351562 354.246094 L 354.351562 3.414062 L 3.589844 3.414062 Z M 3.589844 354.246094 " fill-opacity="1" fill-rule="nonzero"/></g><path fill="#000000" d="M 212.121094 59.46875 L 208.398438 59.484375 L 208.433594 68.882812 C 208.394531 71.78125 193.476562 71.78125 193.523438 68.882812 L 193.542969 50.242188 L 190.089844 50.324219 L 190.09375 71.78125 C 190.113281 75.847656 212.085938 75.722656 212.207031 71.78125 Z M 212.121094 59.46875 " fill-opacity="1" fill-rule="nonzero"/><path fill="#000000" d="M 126.636719 50.96875 L 130.816406 50.96875 L 130.757812 71.78125 L 126.628906 71.78125 Z M 126.636719 50.96875 " fill-opacity="1" fill-rule="nonzero"/><path fill="#000000" d="M 119.996094 48.820312 L 120.039062 52.226562 C 109.449219 52.210938 101.230469 52.546875 98.417969 58.890625 C 105.636719 59.65625 112.429688 61.929688 118.75 64.878906 C 121.472656 66.773438 123.007812 71.78125 114.949219 74.101562 L 88.625 74 C 86.585938 74.160156 83.511719 70.992188 83.019531 68.882812 L 86.085938 68.882812 C 86.910156 70.542969 88.125 70.433594 89.246094 70.804688 L 113.34375 70.804688 C 118.449219 69.902344 117.835938 67.792969 115.859375 66.683594 C 109.730469 64.375 103.726562 62.335938 95.390625 60.910156 C 93.1875 60.527344 92.449219 60.113281 92.710938 58.96875 C 97.296875 49.859375 106.691406 48.398438 119.996094 48.820312 " fill-opacity="1" fill-rule="nonzero"/><path fill="#000000" d="M 208.273438 55.414062 L 212.175781 55.414062 L 212.175781 51.667969 L 208.273438 51.667969 Z M 208.273438 55.414062 " fill-opacity="1" fill-rule="nonzero"/><path fill="#000000" d="M 259.984375 280.796875 L 259.984375 287.65625 C 260.664062 286.949219 261.457031 286.425781 262.332031 286.078125 C 263.222656 285.734375 264.238281 285.5625 265.371094 285.5625 C 267.882812 285.5625 269.816406 286.164062 271.167969 287.371094 C 272.503906 288.570312 273.179688 290.304688 273.179688 292.570312 L 273.179688 301.570312 L 268.488281 301.570312 L 268.488281 294.648438 C 268.488281 292.503906 268.179688 291.046875 267.558594 290.28125 C 266.941406 289.511719 265.863281 289.128906 264.328125 289.128906 C 262.761719 289.128906 261.632812 289.5625 260.953125 290.421875 C 260.273438 291.285156 259.925781 292.761719 259.925781 294.847656 L 259.925781 301.570312 L 255.398438 301.570312 L 255.398438 280.796875 Z M 244.953125 291.457031 C 244.390625 290.636719 243.667969 290.027344 242.800781 289.613281 C 241.925781 289.207031 240.890625 289 239.6875 289 C 238.101562 289 236.765625 289.453125 235.703125 290.335938 C 234.628906 291.238281 234.097656 292.359375 234.097656 293.710938 C 234.097656 295.042969 234.640625 296.148438 235.734375 297.039062 C 236.832031 297.917969 238.199219 298.363281 239.855469 298.363281 C 241.121094 298.363281 242.183594 298.148438 243.027344 297.730469 C 243.867188 297.304688 244.5 296.671875 244.914062 295.824219 L 249.917969 295.824219 C 249.304688 297.742188 248.121094 299.257812 246.34375 300.347656 C 244.566406 301.441406 242.421875 301.984375 239.890625 301.984375 C 238.40625 301.984375 237.023438 301.78125 235.75 301.367188 C 234.472656 300.953125 233.328125 300.339844 232.304688 299.527344 C 231.351562 298.773438 230.609375 297.882812 230.070312 296.859375 C 229.535156 295.835938 229.257812 294.796875 229.257812 293.746094 C 229.257812 292.640625 229.503906 291.609375 229.996094 290.644531 C 230.480469 289.683594 231.203125 288.816406 232.15625 288.046875 C 233.207031 287.179688 234.390625 286.527344 235.714844 286.085938 C 237.039062 285.632812 238.453125 285.410156 239.964844 285.410156 C 242.433594 285.410156 244.578125 285.957031 246.378906 287.050781 C 248.199219 288.136719 249.378906 289.613281 249.960938 291.457031 Z M 219.609375 301.570312 L 219.609375 299.644531 C 219.046875 300.421875 218.261719 301.003906 217.246094 301.375 C 216.226562 301.742188 214.917969 301.921875 213.324219 301.921875 C 210.34375 301.921875 207.859375 301.132812 205.867188 299.550781 C 203.871094 297.972656 202.871094 296 202.871094 293.648438 C 202.871094 292.550781 203.121094 291.5 203.621094 290.511719 C 204.113281 289.523438 204.832031 288.648438 205.761719 287.90625 C 206.765625 287.074219 207.878906 286.46875 209.097656 286.066406 C 210.316406 285.675781 211.691406 285.476562 213.21875 285.476562 C 214.683594 285.476562 215.949219 285.667969 217.007812 286.046875 C 218.0625 286.425781 218.921875 287 219.558594 287.777344 L 219.558594 285.875 L 224.144531 285.875 L 224.144531 301.570312 Z M 207.675781 293.59375 C 207.675781 294.917969 208.234375 296.019531 209.367188 296.910156 C 210.496094 297.800781 211.871094 298.242188 213.503906 298.242188 C 214.976562 298.242188 216.273438 297.796875 217.398438 296.90625 C 218.519531 296.011719 219.082031 294.964844 219.082031 293.769531 C 219.082031 292.488281 218.519531 291.394531 217.386719 290.480469 C 216.261719 289.5625 214.933594 289.097656 213.417969 289.097656 C 211.839844 289.097656 210.480469 289.53125 209.359375 290.402344 C 208.234375 291.273438 207.675781 292.335938 207.675781 293.59375 Z M 200.023438 289.054688 C 198.199219 289.164062 196.933594 289.546875 196.210938 290.171875 C 195.496094 290.804688 195.128906 291.929688 195.128906 293.5625 L 195.128906 301.570312 L 190.4375 301.570312 L 190.4375 285.875 L 194.835938 285.875 L 194.835938 287.691406 C 195.542969 286.980469 196.3125 286.46875 197.160156 286.136719 C 198.003906 285.816406 198.957031 285.648438 200.023438 285.648438 Z M 178.386719 301.570312 L 178.386719 289.128906 L 175.308594 289.128906 L 175.308594 285.875 L 178.386719 285.875 L 178.386719 280.796875 L 183.078125 280.796875 L 183.078125 285.875 L 186.171875 285.875 L 186.171875 289.128906 L 183.078125 289.128906 L 183.078125 301.570312 Z M 166.101562 301.570312 L 166.101562 299.644531 C 165.542969 300.421875 164.75 301.003906 163.738281 301.375 C 162.714844 301.742188 161.40625 301.921875 159.816406 301.921875 C 156.835938 301.921875 154.351562 301.132812 152.359375 299.550781 C 150.363281 297.972656 149.355469 296 149.355469 293.648438 C 149.355469 292.550781 149.613281 291.5 150.113281 290.511719 C 150.613281 289.523438 151.316406 288.648438 152.253906 287.90625 C 153.257812 287.074219 154.367188 286.46875 155.589844 286.066406 C 156.808594 285.675781 158.183594 285.476562 159.714844 285.476562 C 161.175781 285.476562 162.4375 285.667969 163.5 286.046875 C 164.550781 286.425781 165.402344 287 166.050781 287.777344 L 166.050781 285.875 L 170.632812 285.875 L 170.632812 301.570312 Z M 154.160156 293.59375 C 154.160156 294.917969 154.722656 296.019531 155.859375 296.910156 C 156.980469 297.800781 158.363281 298.242188 159.988281 298.242188 C 161.457031 298.242188 162.761719 297.796875 163.890625 296.90625 C 165.011719 296.011719 165.574219 294.964844 165.574219 293.769531 C 165.574219 292.488281 165.011719 291.394531 163.875 290.480469 C 162.746094 289.5625 161.425781 289.097656 159.910156 289.097656 C 158.332031 289.097656 156.96875 289.53125 155.847656 290.402344 C 154.722656 291.273438 154.160156 292.335938 154.160156 293.59375 Z M 131.121094 285.875 L 131.121094 287.65625 C 131.804688 286.949219 132.59375 286.425781 133.480469 286.078125 C 134.363281 285.734375 135.367188 285.5625 136.511719 285.5625 C 137.960938 285.5625 139.226562 285.78125 140.316406 286.210938 C 141.398438 286.636719 142.292969 287.277344 143.011719 288.128906 C 143.484375 288.699219 143.8125 289.351562 144.011719 290.074219 C 144.214844 290.804688 144.316406 291.871094 144.316406 293.269531 L 144.316406 301.570312 L 139.621094 301.570312 L 139.621094 294.621094 C 139.621094 292.515625 139.308594 291.078125 138.691406 290.296875 C 138.066406 289.519531 136.984375 289.128906 135.464844 289.128906 C 133.898438 289.128906 132.773438 289.5625 132.09375 290.421875 C 131.414062 291.285156 131.070312 292.761719 131.070312 294.847656 L 131.070312 301.570312 L 126.535156 301.570312 L 126.535156 285.875 Z M 100.253906 293.648438 C 100.253906 292.550781 100.519531 291.5 101.042969 290.507812 C 101.554688 289.511719 102.3125 288.632812 103.296875 287.863281 C 104.3125 287.074219 105.457031 286.46875 106.730469 286.042969 C 107.996094 285.621094 109.316406 285.410156 110.6875 285.410156 C 112.136719 285.410156 113.480469 285.59375 114.714844 285.976562 C 115.929688 286.347656 117.074219 286.914062 118.09375 287.667969 C 119.144531 288.453125 119.960938 289.359375 120.527344 290.394531 C 121.105469 291.425781 121.386719 292.488281 121.386719 293.570312 C 121.386719 294.769531 121.136719 295.859375 120.636719 296.847656 C 120.144531 297.839844 119.390625 298.734375 118.386719 299.527344 C 117.382812 300.339844 116.242188 300.953125 114.960938 301.367188 C 113.679688 301.78125 112.28125 301.984375 110.78125 301.984375 C 109.265625 301.984375 107.878906 301.78125 106.640625 301.355469 C 105.390625 300.941406 104.261719 300.308594 103.230469 299.476562 C 102.25 298.65625 101.507812 297.753906 101.011719 296.773438 C 100.507812 295.789062 100.253906 294.75 100.253906 293.648438 Z M 105.09375 293.625 C 105.09375 295.082031 105.609375 296.234375 106.632812 297.085938 C 107.660156 297.945312 109.054688 298.363281 110.8125 298.363281 C 112.550781 298.363281 113.933594 297.929688 114.964844 297.058594 C 116 296.1875 116.523438 295.011719 116.523438 293.539062 C 116.523438 292.21875 115.980469 291.132812 114.898438 290.28125 C 113.820312 289.421875 112.449219 289 110.8125 289 C 109.128906 289 107.753906 289.433594 106.6875 290.296875 C 105.628906 291.15625 105.09375 292.269531 105.09375 293.625 Z M 87.078125 296.363281 L 87.078125 296.582031 C 87.078125 297.269531 87.304688 297.839844 87.753906 298.265625 C 88.214844 298.699219 88.800781 298.917969 89.511719 298.917969 C 90.203125 298.917969 90.765625 298.757812 91.199219 298.429688 C 91.625 298.105469 91.84375 297.691406 91.84375 297.191406 C 91.84375 296.730469 91.6875 296.339844 91.363281 296.042969 C 91.054688 295.75 90.484375 295.445312 89.65625 295.140625 C 89.191406 294.976562 88.507812 294.753906 87.605469 294.464844 C 86.699219 294.183594 86.121094 293.960938 85.867188 293.800781 C 85.117188 293.320312 84.574219 292.792969 84.222656 292.207031 C 83.863281 291.621094 83.683594 290.949219 83.683594 290.199219 C 83.683594 288.875 84.277344 287.761719 85.472656 286.847656 C 86.667969 285.933594 88.109375 285.476562 89.804688 285.476562 C 91.597656 285.476562 93.015625 285.882812 94.066406 286.691406 C 95.109375 287.5 95.6875 288.632812 95.78125 290.089844 L 91.566406 290.089844 L 91.566406 290 C 91.566406 289.5 91.398438 289.105469 91.058594 288.816406 C 90.722656 288.527344 90.253906 288.390625 89.65625 288.390625 C 89.136719 288.390625 88.695312 288.527344 88.351562 288.808594 C 88 289.089844 87.828125 289.441406 87.828125 289.859375 C 87.828125 290.546875 88.726562 291.183594 90.535156 291.773438 C 91.011719 291.925781 91.378906 292.039062 91.640625 292.132812 C 93.371094 292.734375 94.558594 293.386719 95.195312 294.09375 C 95.828125 294.789062 96.148438 295.730469 96.148438 296.921875 C 96.148438 298.386719 95.503906 299.59375 94.238281 300.550781 C 92.972656 301.507812 91.363281 301.984375 89.4375 301.984375 C 87.496094 301.984375 85.929688 301.484375 84.738281 300.476562 C 83.550781 299.472656 82.902344 298.101562 82.785156 296.382812 Z M 87.078125 296.363281 " fill-opacity="1" fill-rule="nonzero"/><path fill="#000000" d="M 153.921875 70.625 L 177.539062 70.625 C 186.226562 69.910156 180.25 59.039062 174.261719 60.796875 C 166.113281 63.214844 159.371094 66.160156 153.921875 70.625 Z M 146.589844 50.882812 L 150.5 50.828125 L 150.402344 67.039062 C 159.878906 60.332031 169.820312 57.125 179.554688 57.625 C 184.46875 57.886719 191.039062 71.785156 176.921875 74.105469 L 139.757812 74.105469 C 137.640625 79.191406 133.917969 82.675781 128.597656 84.601562 L 128.53125 80.558594 C 133.179688 78.832031 136.121094 74.820312 137.589844 68.863281 L 137.542969 59.496094 L 140.828125 59.496094 L 140.851562 68.878906 L 146.578125 68.878906 Z M 146.589844 50.882812 " fill-opacity="1" fill-rule="nonzero"/><path fill="#000000" d="M 228.734375 61.890625 C 232.945312 61.890625 236.375 63.460938 236.375 65.398438 C 236.375 67.308594 232.945312 68.878906 228.734375 68.878906 C 224.539062 68.878906 221.109375 67.308594 221.109375 65.398438 C 221.109375 63.460938 224.539062 61.890625 228.734375 61.890625 Z M 276.972656 59.5 L 273.152344 59.5 L 273.152344 68.863281 C 273.152344 71.785156 264.578125 71.785156 264.578125 68.878906 L 264.578125 59.5 L 260.242188 59.5 L 260.242188 68.878906 C 260.242188 71.785156 251.390625 71.785156 251.390625 68.878906 L 251.390625 59.5 L 247.304688 59.5 L 247.304688 68.878906 C 247.140625 70.09375 244.417969 72.019531 240.726562 71.859375 C 240.636719 67.414062 239.957031 59.5 232.363281 59.5 C 224.734375 59.5 218.640625 59.5 217.621094 63.613281 C 216.878906 67.667969 219.089844 71.785156 226.140625 71.785156 C 230 72.121094 233.632812 71.835938 237.113281 71.109375 C 236.386719 76.167969 233.566406 79.15625 228.605469 80.710938 L 228.625 84.75 C 234.183594 82.75 238.582031 79.625 239.910156 75.003906 C 242.628906 75.003906 245.445312 74.289062 247.363281 71.914062 L 251.390625 71.914062 C 254.601562 74.242188 257.398438 74.105469 260.242188 71.785156 L 264.132812 71.785156 C 264.648438 71.785156 264.359375 73.417969 269.777344 73.308594 C 276.765625 73.191406 276.972656 69.101562 276.972656 68.878906 Z M 276.972656 59.5 " fill-opacity="1" fill-rule="nonzero"/><path fill="#000000" d="M 274.871094 126.277344 L 274.921875 88.652344 L 98.847656 88.085938 C 86.902344 88.652344 83.019531 92.535156 83.019531 104.199219 L 83.019531 162.199219 C 83.019531 170.308594 86.605469 175.65625 101.261719 175.65625 L 233.855469 175.65625 C 237.066406 175.65625 237.296875 182.523438 233.855469 182.523438 L 83.019531 182.523438 L 83.019531 221.460938 L 157.679688 221.460938 L 157.679688 231.851562 L 83.019531 231.851562 L 83.542969 269.339844 L 274.921875 269.574219 L 274.921875 231.851562 L 202.148438 231.851562 L 202.148438 221.460938 L 262.785156 221.460938 C 270.246094 221.460938 274.921875 217.574219 274.921875 209.472656 L 274.921875 150.117188 C 274.921875 138.621094 271.015625 134.605469 259.921875 134.605469 L 126.226562 134.605469 C 122.417969 134.605469 122.386719 127.558594 126.246094 127.558594 L 274.921875 127.558594 Z M 274.871094 126.277344 " fill-opacity="1" fill-rule="nonzero"/></svg>