<svg xmlns="http://www.w3.org/2000/svg" xmlns:xlink="http://www.w3.org/1999/xlink" width="24px" zoomAndPan="magnify" viewBox="0 0 375 374.999991" height="24px" preserveAspectRatio="xMidYMid meet" version="1.0"><defs><g/><clipPath id="f536b98bb4"><path d="M 46.707031 337 L 51 337 L 51 352 L 46.707031 352 Z M 46.707031 337 " clip-rule="nonzero"/></clipPath><clipPath id="0387a0e49d"><path d="M 46.707031 11 L 327.957031 11 L 327.957031 268 L 46.707031 268 Z M 46.707031 11 " clip-rule="nonzero"/></clipPath><clipPath id="79146af192"><path d="M 324 337 L 327.957031 337 L 327.957031 352 L 324 352 Z M 324 337 " clip-rule="nonzero"/></clipPath><clipPath id="e0985fa0f0"><path d="M 280 11 L 327.957031 11 L 327.957031 64 L 280 64 Z M 280 11 " clip-rule="nonzero"/></clipPath><clipPath id="20839faaa7"><path d="M 50 351 L 325 351 L 325 364.203125 L 50 364.203125 Z M 50 351 " clip-rule="nonzero"/></clipPath><clipPath id="3562e798ed"><path d="M 46.707031 267 L 327.957031 267 L 327.957031 362 L 46.707031 362 Z M 46.707031 267 " clip-rule="nonzero"/></clipPath></defs><g fill="#000000" fill-opacity="1"><g transform="translate(81.011718, 174.749989)"><g><path d="M 21.078125 0 L 19 -6.796875 L 8.59375 -6.796875 L 6.53125 0 L 0 0 L 10.078125 -28.671875 L 17.484375 -28.671875 L 27.59375 0 Z M 17.5625 -11.875 C 15.644531 -18.03125 14.566406 -21.507812 14.328125 -22.3125 C 14.085938 -23.125 13.914062 -23.765625 13.8125 -24.234375 C 13.382812 -22.566406 12.15625 -18.445312 10.125 -11.875 Z M 17.5625 -11.875 "/></g></g></g><g fill="#000000" fill-opacity="1"><g transform="translate(108.606683, 174.749989)"><g><path d="M 1.375 9.609375 C -0.15625 9.609375 -1.46875 9.445312 -2.5625 9.125 L -2.5625 4.4375 C -1.644531 4.6875 -0.710938 4.8125 0.234375 4.8125 C 1.234375 4.8125 1.960938 4.53125 2.421875 3.96875 C 2.890625 3.40625 3.125 2.578125 3.125 1.484375 L 3.125 -21.84375 L 9.078125 -21.84375 L 9.078125 2.359375 C 9.078125 4.679688 8.40625 6.46875 7.0625 7.71875 C 5.726562 8.976562 3.832031 9.609375 1.375 9.609375 Z M 2.875 -27.484375 C 2.875 -29.421875 3.953125 -30.390625 6.109375 -30.390625 C 8.273438 -30.390625 9.359375 -29.421875 9.359375 -27.484375 C 9.359375 -26.554688 9.085938 -25.832031 8.546875 -25.3125 C 8.003906 -24.800781 7.191406 -24.546875 6.109375 -24.546875 C 3.953125 -24.546875 2.875 -25.523438 2.875 -27.484375 Z M 2.875 -27.484375 "/></g></g></g><g fill="#000000" fill-opacity="1"><g transform="translate(120.812527, 174.749989)"><g><path d="M 7.875 -10.953125 C 7.875 -8.796875 8.226562 -7.160156 8.9375 -6.046875 C 9.644531 -4.941406 10.800781 -4.390625 12.40625 -4.390625 C 13.988281 -4.390625 15.128906 -4.941406 15.828125 -6.046875 C 16.523438 -7.148438 16.875 -8.785156 16.875 -10.953125 C 16.875 -13.117188 16.519531 -14.738281 15.8125 -15.8125 C 15.113281 -16.894531 13.960938 -17.4375 12.359375 -17.4375 C 10.773438 -17.4375 9.628906 -16.898438 8.921875 -15.828125 C 8.222656 -14.753906 7.875 -13.128906 7.875 -10.953125 Z M 22.96875 -10.953125 C 22.96875 -7.398438 22.03125 -4.617188 20.15625 -2.609375 C 18.28125 -0.609375 15.671875 0.390625 12.328125 0.390625 C 10.234375 0.390625 8.382812 -0.0664062 6.78125 -0.984375 C 5.175781 -1.898438 3.941406 -3.21875 3.078125 -4.9375 C 2.222656 -6.65625 1.796875 -8.660156 1.796875 -10.953125 C 1.796875 -14.523438 2.726562 -17.300781 4.59375 -19.28125 C 6.457031 -21.257812 9.070312 -22.25 12.4375 -22.25 C 14.539062 -22.25 16.390625 -21.789062 17.984375 -20.875 C 19.585938 -19.96875 20.816406 -18.660156 21.671875 -16.953125 C 22.535156 -15.242188 22.96875 -13.242188 22.96875 -10.953125 Z M 22.96875 -10.953125 "/></g></g></g><g fill="#000000" fill-opacity="1"><g transform="translate(145.575732, 174.749989)"><g><path d="M 18.59375 0 L 17.796875 -2.796875 L 17.484375 -2.796875 C 16.847656 -1.773438 15.941406 -0.988281 14.765625 -0.4375 C 13.597656 0.113281 12.265625 0.390625 10.765625 0.390625 C 8.203125 0.390625 6.269531 -0.296875 4.96875 -1.671875 C 3.664062 -3.046875 3.015625 -5.019531 3.015625 -7.59375 L 3.015625 -21.84375 L 8.96875 -21.84375 L 8.96875 -9.078125 C 8.96875 -7.503906 9.242188 -6.320312 9.796875 -5.53125 C 10.359375 -4.75 11.253906 -4.359375 12.484375 -4.359375 C 14.148438 -4.359375 15.351562 -4.914062 16.09375 -6.03125 C 16.832031 -7.144531 17.203125 -8.988281 17.203125 -11.5625 L 17.203125 -21.84375 L 23.171875 -21.84375 L 23.171875 0 Z M 18.59375 0 "/></g></g></g><g fill="#000000" fill-opacity="1"><g transform="translate(171.862225, 174.749989)"><g><path d="M 12.328125 -4.359375 C 13.367188 -4.359375 14.617188 -4.585938 16.078125 -5.046875 L 16.078125 -0.609375 C 14.585938 0.0546875 12.765625 0.390625 10.609375 0.390625 C 8.222656 0.390625 6.484375 -0.207031 5.390625 -1.40625 C 4.304688 -2.613281 3.765625 -4.425781 3.765625 -6.84375 L 3.765625 -17.359375 L 0.921875 -17.359375 L 0.921875 -19.890625 L 4.203125 -21.875 L 5.921875 -26.484375 L 9.734375 -26.484375 L 9.734375 -21.84375 L 15.84375 -21.84375 L 15.84375 -17.359375 L 9.734375 -17.359375 L 9.734375 -6.84375 C 9.734375 -5.988281 9.96875 -5.359375 10.4375 -4.953125 C 10.914062 -4.554688 11.546875 -4.359375 12.328125 -4.359375 Z M 12.328125 -4.359375 "/></g></g></g><g fill="#000000" fill-opacity="1"><g transform="translate(189.223815, 174.749989)"><g><path d="M 12.171875 -18.015625 C 10.910156 -18.015625 9.921875 -17.613281 9.203125 -16.8125 C 8.484375 -16.007812 8.070312 -14.875 7.96875 -13.40625 L 16.328125 -13.40625 C 16.304688 -14.875 15.921875 -16.007812 15.171875 -16.8125 C 14.429688 -17.613281 13.429688 -18.015625 12.171875 -18.015625 Z M 13.015625 0.390625 C 9.492188 0.390625 6.742188 -0.578125 4.765625 -2.515625 C 2.785156 -4.460938 1.796875 -7.210938 1.796875 -10.765625 C 1.796875 -14.421875 2.707031 -17.25 4.53125 -19.25 C 6.363281 -21.25 8.894531 -22.25 12.125 -22.25 C 15.21875 -22.25 17.625 -21.367188 19.34375 -19.609375 C 21.0625 -17.847656 21.921875 -15.421875 21.921875 -12.328125 L 21.921875 -9.4375 L 7.828125 -9.4375 C 7.898438 -7.738281 8.40625 -6.414062 9.34375 -5.46875 C 10.28125 -4.519531 11.59375 -4.046875 13.28125 -4.046875 C 14.59375 -4.046875 15.832031 -4.179688 17 -4.453125 C 18.175781 -4.722656 19.40625 -5.160156 20.6875 -5.765625 L 20.6875 -1.15625 C 19.644531 -0.632812 18.53125 -0.25 17.34375 0 C 16.15625 0.257812 14.710938 0.390625 13.015625 0.390625 Z M 13.015625 0.390625 "/></g></g></g><g fill="#000000" fill-opacity="1"><g transform="translate(212.854318, 174.749989)"><g><path d="M 15.3125 -22.25 C 16.125 -22.25 16.796875 -22.191406 17.328125 -22.078125 L 16.875 -16.484375 C 16.394531 -16.617188 15.8125 -16.6875 15.125 -16.6875 C 13.21875 -16.6875 11.734375 -16.195312 10.671875 -15.21875 C 9.609375 -14.238281 9.078125 -12.867188 9.078125 -11.109375 L 9.078125 0 L 3.125 0 L 3.125 -21.84375 L 7.640625 -21.84375 L 8.515625 -18.171875 L 8.8125 -18.171875 C 9.488281 -19.390625 10.398438 -20.375 11.546875 -21.125 C 12.703125 -21.875 13.957031 -22.25 15.3125 -22.25 Z M 15.3125 -22.25 "/></g></g></g><g fill="#000000" fill-opacity="1"><g transform="translate(231.016605, 174.749989)"><g/></g></g><g fill="#000000" fill-opacity="1"><g transform="translate(241.406215, 174.749989)"><g><path d="M 18.59375 0 L 17.796875 -2.796875 L 17.484375 -2.796875 C 16.847656 -1.773438 15.941406 -0.988281 14.765625 -0.4375 C 13.597656 0.113281 12.265625 0.390625 10.765625 0.390625 C 8.203125 0.390625 6.269531 -0.296875 4.96875 -1.671875 C 3.664062 -3.046875 3.015625 -5.019531 3.015625 -7.59375 L 3.015625 -21.84375 L 8.96875 -21.84375 L 8.96875 -9.078125 C 8.96875 -7.503906 9.242188 -6.320312 9.796875 -5.53125 C 10.359375 -4.75 11.253906 -4.359375 12.484375 -4.359375 C 14.148438 -4.359375 15.351562 -4.914062 16.09375 -6.03125 C 16.832031 -7.144531 17.203125 -8.988281 17.203125 -11.5625 L 17.203125 -21.84375 L 23.171875 -21.84375 L 23.171875 0 Z M 18.59375 0 "/></g></g></g><g fill="#000000" fill-opacity="1"><g transform="translate(267.692708, 174.749989)"><g><path d="M 23.28125 0 L 17.328125 0 L 17.328125 -12.75 C 17.328125 -14.332031 17.046875 -15.515625 16.484375 -16.296875 C 15.921875 -17.085938 15.03125 -17.484375 13.8125 -17.484375 C 12.144531 -17.484375 10.9375 -16.925781 10.1875 -15.8125 C 9.445312 -14.695312 9.078125 -12.851562 9.078125 -10.28125 L 9.078125 0 L 3.125 0 L 3.125 -21.84375 L 7.671875 -21.84375 L 8.484375 -19.046875 L 8.8125 -19.046875 C 9.476562 -20.097656 10.390625 -20.894531 11.546875 -21.4375 C 12.710938 -21.976562 14.039062 -22.25 15.53125 -22.25 C 18.070312 -22.25 20 -21.5625 21.3125 -20.1875 C 22.625 -18.8125 23.28125 -16.828125 23.28125 -14.234375 Z M 23.28125 0 "/></g></g></g><g fill="#000000" fill-opacity="1"><g transform="translate(143.132808, 230.249985)"><g><path d="M 12.328125 -4.359375 C 13.367188 -4.359375 14.617188 -4.585938 16.078125 -5.046875 L 16.078125 -0.609375 C 14.585938 0.0546875 12.765625 0.390625 10.609375 0.390625 C 8.222656 0.390625 6.484375 -0.207031 5.390625 -1.40625 C 4.304688 -2.613281 3.765625 -4.425781 3.765625 -6.84375 L 3.765625 -17.359375 L 0.921875 -17.359375 L 0.921875 -19.890625 L 4.203125 -21.875 L 5.921875 -26.484375 L 9.734375 -26.484375 L 9.734375 -21.84375 L 15.84375 -21.84375 L 15.84375 -17.359375 L 9.734375 -17.359375 L 9.734375 -6.84375 C 9.734375 -5.988281 9.96875 -5.359375 10.4375 -4.953125 C 10.914062 -4.554688 11.546875 -4.359375 12.328125 -4.359375 Z M 12.328125 -4.359375 "/></g></g></g><g fill="#000000" fill-opacity="1"><g transform="translate(160.494397, 230.249985)"><g><path d="M 2.875 -27.484375 C 2.875 -29.421875 3.953125 -30.390625 6.109375 -30.390625 C 8.273438 -30.390625 9.359375 -29.421875 9.359375 -27.484375 C 9.359375 -26.554688 9.085938 -25.832031 8.546875 -25.3125 C 8.003906 -24.800781 7.191406 -24.546875 6.109375 -24.546875 C 3.953125 -24.546875 2.875 -25.523438 2.875 -27.484375 Z M 9.078125 0 L 3.125 0 L 3.125 -21.84375 L 9.078125 -21.84375 Z M 9.078125 0 "/></g></g></g><g fill="#000000" fill-opacity="1"><g transform="translate(172.700242, 230.249985)"><g><path d="M 12.328125 -4.359375 C 13.367188 -4.359375 14.617188 -4.585938 16.078125 -5.046875 L 16.078125 -0.609375 C 14.585938 0.0546875 12.765625 0.390625 10.609375 0.390625 C 8.222656 0.390625 6.484375 -0.207031 5.390625 -1.40625 C 4.304688 -2.613281 3.765625 -4.425781 3.765625 -6.84375 L 3.765625 -17.359375 L 0.921875 -17.359375 L 0.921875 -19.890625 L 4.203125 -21.875 L 5.921875 -26.484375 L 9.734375 -26.484375 L 9.734375 -21.84375 L 15.84375 -21.84375 L 15.84375 -17.359375 L 9.734375 -17.359375 L 9.734375 -6.84375 C 9.734375 -5.988281 9.96875 -5.359375 10.4375 -4.953125 C 10.914062 -4.554688 11.546875 -4.359375 12.328125 -4.359375 Z M 12.328125 -4.359375 "/></g></g></g><g fill="#000000" fill-opacity="1"><g transform="translate(190.061831, 230.249985)"><g><path d="M 15.3125 -22.25 C 16.125 -22.25 16.796875 -22.191406 17.328125 -22.078125 L 16.875 -16.484375 C 16.394531 -16.617188 15.8125 -16.6875 15.125 -16.6875 C 13.21875 -16.6875 11.734375 -16.195312 10.671875 -15.21875 C 9.609375 -14.238281 9.078125 -12.867188 9.078125 -11.109375 L 9.078125 0 L 3.125 0 L 3.125 -21.84375 L 7.640625 -21.84375 L 8.515625 -18.171875 L 8.8125 -18.171875 C 9.488281 -19.390625 10.398438 -20.375 11.546875 -21.125 C 12.703125 -21.875 13.957031 -22.25 15.3125 -22.25 Z M 15.3125 -22.25 "/></g></g></g><g fill="#000000" fill-opacity="1"><g transform="translate(208.224119, 230.249985)"><g><path d="M 12.171875 -18.015625 C 10.910156 -18.015625 9.921875 -17.613281 9.203125 -16.8125 C 8.484375 -16.007812 8.070312 -14.875 7.96875 -13.40625 L 16.328125 -13.40625 C 16.304688 -14.875 15.921875 -16.007812 15.171875 -16.8125 C 14.429688 -17.613281 13.429688 -18.015625 12.171875 -18.015625 Z M 13.015625 0.390625 C 9.492188 0.390625 6.742188 -0.578125 4.765625 -2.515625 C 2.785156 -4.460938 1.796875 -7.210938 1.796875 -10.765625 C 1.796875 -14.421875 2.707031 -17.25 4.53125 -19.25 C 6.363281 -21.25 8.894531 -22.25 12.125 -22.25 C 15.21875 -22.25 17.625 -21.367188 19.34375 -19.609375 C 21.0625 -17.847656 21.921875 -15.421875 21.921875 -12.328125 L 21.921875 -9.4375 L 7.828125 -9.4375 C 7.898438 -7.738281 8.40625 -6.414062 9.34375 -5.46875 C 10.28125 -4.519531 11.59375 -4.046875 13.28125 -4.046875 C 14.59375 -4.046875 15.832031 -4.179688 17 -4.453125 C 18.175781 -4.722656 19.40625 -5.160156 20.6875 -5.765625 L 20.6875 -1.15625 C 19.644531 -0.632812 18.53125 -0.25 17.34375 0 C 16.15625 0.257812 14.710938 0.390625 13.015625 0.390625 Z M 13.015625 0.390625 "/></g></g></g><g clip-path="url(#f536b98bb4)"><path fill="#e6e6e6" d="M 46.707031 339.136719 C 46.707031 343.703125 48.113281 347.976562 50.527344 351.46875 C 48.078125 347.496094 46.707031 342.851562 46.707031 337.835938 Z M 46.707031 339.136719 " fill-opacity="1" fill-rule="nonzero"/></g><path fill="#e6e6e6" d="M 195.824219 84.511719 C 195.492188 78.492188 191.78125 75.335938 189.371094 75.074219 C 189.296875 75.074219 189.183594 75.074219 189.109375 75.074219 C 186.8125 75.074219 185.625 78.234375 185.105469 80.164062 C 182.582031 89.789062 185.289062 99.449219 190.632812 108.550781 C 195.34375 94.023438 196.011719 87.410156 195.824219 84.511719 Z M 195.824219 84.511719 " fill-opacity="1" fill-rule="nonzero"/><path fill="#e6e6e6" d="M 194.933594 135.265625 C 192.414062 141.730469 189.851562 147.824219 187.699219 152.878906 C 192.78125 151.054688 196.121094 149.941406 196.417969 149.867188 L 196.492188 149.832031 C 196.789062 149.71875 200.945312 148.457031 206.992188 146.933594 C 203.019531 143.328125 198.902344 139.425781 194.933594 135.265625 Z M 194.933594 135.265625 " fill-opacity="1" fill-rule="nonzero"/><path fill="#e6e6e6" d="M 138.664062 192.222656 C 137.402344 193.597656 137.03125 194.453125 136.917969 194.789062 C 137.03125 194.898438 137.214844 195.121094 137.550781 195.417969 C 141.59375 198.761719 144.261719 198.464844 145.933594 197.984375 C 148.457031 197.203125 151.273438 194.972656 154.128906 191.480469 C 156.800781 188.210938 159.472656 183.902344 162.03125 178.699219 C 162.253906 178.214844 162.515625 177.734375 162.738281 177.25 C 155.652344 180.59375 149.863281 183.753906 145.449219 186.726562 C 142.484375 188.695312 140.21875 190.550781 138.664062 192.222656 Z M 138.664062 192.222656 " fill-opacity="1" fill-rule="nonzero"/><g clip-path="url(#0387a0e49d)"><path fill="#e6e6e6" d="M 290.710938 65.859375 C 286.855469 65.859375 283.21875 64.1875 280.695312 61.253906 C 278.101562 58.242188 276.988281 54.269531 277.617188 50.328125 L 284.222656 11.09375 L 68.554688 11.09375 C 56.5 11.09375 46.707031 20.902344 46.707031 32.976562 L 46.707031 267.648438 L 327.917969 267.648438 L 327.917969 64.894531 L 291.046875 65.824219 C 290.933594 65.859375 290.824219 65.859375 290.710938 65.859375 Z M 264.671875 159.824219 C 264.078125 163.019531 262.371094 165.917969 259.703125 168.183594 C 256.289062 171.082031 251.613281 172.679688 246.605469 172.679688 C 245.9375 172.679688 245.273438 172.644531 244.566406 172.605469 C 238.410156 172.085938 232.363281 169.226562 227.167969 164.394531 C 225.09375 162.464844 222.382812 160.195312 219.269531 157.519531 C 209.289062 159.601562 201.054688 162.128906 200.425781 162.3125 C 199.71875 162.539062 190.890625 165.472656 179.949219 169.820312 C 178.613281 173.574219 176.574219 178.8125 173.863281 184.273438 C 170.859375 190.402344 167.632812 195.605469 164.332031 199.65625 C 159.769531 205.300781 154.835938 208.945312 149.753906 210.503906 C 148.085938 211.023438 146.117188 211.394531 143.929688 211.394531 C 139.699219 211.394531 134.582031 210.019531 129.167969 205.527344 C 123.378906 200.734375 123.417969 195.269531 123.9375 192.445312 C 124.566406 189.175781 126.382812 186.019531 129.460938 182.785156 C 131.800781 180.371094 134.804688 177.957031 138.699219 175.394531 C 144.78125 171.378906 152.90625 167.144531 162.886719 162.722656 C 165.40625 161.609375 167.929688 160.53125 170.378906 159.527344 C 172.269531 155.367188 177.871094 142.808594 183.285156 128.835938 C 183.953125 127.128906 184.585938 125.492188 185.179688 123.933594 C 179.613281 116.539062 175.644531 109.21875 173.382812 102.199219 C 170.5625 93.503906 170.230469 84.957031 172.417969 76.785156 C 173.714844 71.84375 176.015625 68.015625 179.28125 65.414062 C 182.507812 62.8125 186.550781 61.625 190.667969 62.03125 C 193.042969 62.292969 195.378906 63.035156 197.605469 64.300781 C 199.71875 65.488281 201.574219 67.085938 203.207031 69.019531 C 204.839844 70.949219 206.175781 73.21875 207.136719 75.667969 C 208.140625 78.234375 208.734375 80.980469 208.882812 83.84375 C 209.179688 89.121094 207.878906 96.585938 204.914062 106.730469 C 203.613281 111.1875 201.984375 116.128906 200.054688 121.519531 C 207.210938 129.804688 215.632812 137.308594 222.902344 143.550781 C 223.050781 143.515625 223.238281 143.515625 223.386719 143.476562 C 231.769531 142.066406 238.890625 141.507812 244.566406 141.804688 C 248.351562 142.027344 251.503906 142.621094 254.210938 143.589844 C 257.808594 144.925781 260.554688 146.96875 262.371094 149.683594 C 264.523438 152.839844 265.300781 156.332031 264.671875 159.824219 Z M 264.671875 159.824219 " fill-opacity="1" fill-rule="nonzero"/></g><path fill="#e6e6e6" d="M 243.9375 154.847656 C 241.710938 154.734375 239.152344 154.773438 236.292969 154.996094 C 243.121094 161.199219 249.277344 159.863281 251.207031 158.226562 C 251.613281 157.894531 251.761719 157.597656 251.761719 157.519531 C 251.761719 157.484375 251.726562 157.261719 251.464844 156.851562 C 251.207031 156.40625 249.242188 155.144531 243.9375 154.847656 Z M 243.9375 154.847656 " fill-opacity="1" fill-rule="nonzero"/><g clip-path="url(#79146af192)"><path fill="#e6e6e6" d="M 327.917969 339.136719 L 327.917969 337.871094 C 327.917969 342.851562 326.546875 347.53125 324.097656 351.507812 C 326.507812 347.941406 327.917969 343.703125 327.917969 339.136719 Z M 327.917969 339.136719 " fill-opacity="1" fill-rule="nonzero"/></g><g clip-path="url(#e0985fa0f0)"><path fill="#e6e6e6" d="M 315.824219 43.085938 L 309.703125 36.023438 L 288.152344 11.09375 L 287.003906 11.09375 L 282.699219 36.695312 L 280.324219 50.773438 C 279.214844 57.351562 284.371094 63.257812 291.007812 63.109375 L 305.253906 62.738281 L 327.957031 62.183594 L 327.957031 59.171875 Z M 315.824219 43.085938 " fill-opacity="1" fill-rule="nonzero"/></g><g clip-path="url(#20839faaa7)"><path fill="#f80707" d="M 306.070312 361.019531 L 68.554688 361.019531 C 61.0625 361.019531 54.457031 357.230469 50.527344 351.46875 C 55.089844 359.011719 63.398438 364.066406 72.894531 364.066406 L 301.765625 364.066406 C 311.226562 364.066406 319.535156 359.011719 324.132812 351.46875 C 320.203125 357.230469 313.5625 361.019531 306.070312 361.019531 Z M 306.070312 361.019531 " fill-opacity="1" fill-rule="nonzero"/></g><path fill="#f80707" d="M 207.804688 315.019531 C 207.878906 302.089844 200.386719 294.550781 186.921875 294.550781 C 183.507812 294.550781 181.171875 294.808594 179.578125 295.144531 L 179.578125 337.386719 C 181.0625 337.648438 183.324219 337.648438 185.511719 337.648438 C 199.535156 337.761719 207.804688 329.996094 207.804688 315.019531 Z M 207.804688 315.019531 " fill-opacity="1" fill-rule="nonzero"/><g clip-path="url(#3562e798ed)"><path fill="#f80707" d="M 46.707031 337.835938 C 46.707031 342.8125 48.078125 347.496094 50.527344 351.46875 C 54.457031 357.230469 61.0625 361.019531 68.554688 361.019531 L 306.105469 361.019531 C 313.601562 361.019531 320.203125 357.230469 324.132812 351.46875 C 326.546875 347.496094 327.957031 342.851562 327.957031 337.835938 L 327.957031 267.613281 L 46.707031 267.613281 Z M 228.503906 286.597656 L 262.59375 286.597656 L 262.59375 295.441406 L 239.261719 295.441406 L 239.261719 311.714844 L 260.925781 311.714844 L 260.925781 320.445312 L 239.261719 320.445312 L 239.261719 345.5625 L 228.503906 345.5625 Z M 168.855469 287.378906 C 173.640625 286.671875 179.613281 286.152344 185.957031 286.152344 C 196.976562 286.152344 204.46875 288.417969 209.882812 292.988281 C 215.632812 297.632812 219.15625 304.691406 219.15625 314.6875 C 219.15625 325.277344 215.558594 333.042969 209.996094 338.132812 C 204.132812 343.480469 194.785156 346.195312 183.359375 346.195312 C 177.167969 346.195312 172.457031 345.859375 168.855469 345.414062 Z M 120.039062 287.378906 C 123.972656 286.671875 129.316406 286.152344 136.472656 286.152344 C 144.335938 286.152344 150.011719 287.824219 153.757812 290.945312 C 157.246094 293.84375 159.507812 298.449219 159.507812 303.984375 C 159.507812 309.597656 157.765625 314.128906 154.539062 317.289062 C 150.160156 321.5625 143.523438 323.679688 135.953125 323.679688 C 133.953125 323.679688 132.207031 323.605469 130.722656 323.234375 L 130.722656 345.527344 L 120.078125 345.527344 L 120.078125 287.378906 Z M 120.039062 287.378906 " fill-opacity="1" fill-rule="nonzero"/></g><path fill="#f80707" d="M 148.863281 304.433594 C 148.863281 297.855469 144.335938 294.476562 136.882812 294.476562 C 133.914062 294.476562 131.800781 294.734375 130.6875 294.996094 L 130.6875 314.761719 C 132.097656 315.207031 133.730469 315.28125 135.917969 315.28125 C 143.96875 315.28125 148.863281 311.269531 148.863281 304.433594 Z M 148.863281 304.433594 " fill-opacity="1" fill-rule="nonzero"/><path fill="#ffffff" d="M 130.722656 323.234375 C 132.207031 323.566406 133.953125 323.679688 135.953125 323.679688 C 143.558594 323.679688 150.199219 321.5625 154.539062 317.289062 C 157.765625 314.128906 159.507812 309.597656 159.507812 303.984375 C 159.507812 298.488281 157.246094 293.84375 153.757812 290.945312 C 150.011719 287.785156 144.335938 286.152344 136.472656 286.152344 C 129.316406 286.152344 123.972656 286.671875 120.039062 287.378906 L 120.039062 345.5625 L 130.6875 345.5625 L 130.6875 323.234375 Z M 130.722656 294.996094 C 131.875 294.734375 133.953125 294.476562 136.917969 294.476562 C 144.335938 294.476562 148.898438 297.894531 148.898438 304.433594 C 148.898438 311.269531 144.003906 315.28125 135.992188 315.28125 C 133.804688 315.28125 132.132812 315.207031 130.761719 314.761719 L 130.761719 294.996094 Z M 130.722656 294.996094 " fill-opacity="1" fill-rule="nonzero"/><path fill="#ffffff" d="M 209.996094 338.132812 C 215.597656 333.042969 219.15625 325.277344 219.15625 314.6875 C 219.15625 304.730469 215.671875 297.632812 209.882812 292.988281 C 204.46875 288.457031 196.976562 286.152344 185.957031 286.152344 C 179.578125 286.152344 173.640625 286.671875 168.855469 287.378906 L 168.855469 345.375 C 172.457031 345.824219 177.167969 346.15625 183.359375 346.15625 C 194.824219 346.15625 204.171875 343.445312 209.996094 338.132812 Z M 179.613281 295.179688 C 181.171875 294.847656 183.546875 294.585938 186.960938 294.585938 C 200.425781 294.585938 207.917969 302.089844 207.84375 315.058594 C 207.84375 330.03125 199.535156 337.796875 185.585938 337.722656 C 183.398438 337.722656 181.136719 337.722656 179.652344 337.464844 L 179.652344 295.179688 Z M 179.613281 295.179688 " fill-opacity="1" fill-rule="nonzero"/><path fill="#ffffff" d="M 239.261719 320.445312 L 260.925781 320.445312 L 260.925781 311.714844 L 239.261719 311.714844 L 239.261719 295.441406 L 262.59375 295.441406 L 262.59375 286.597656 L 228.503906 286.597656 L 228.503906 345.5625 L 239.261719 345.5625 Z M 239.261719 320.445312 " fill-opacity="1" fill-rule="nonzero"/><path fill="#fe0606" d="M 254.285156 143.515625 C 251.578125 142.511719 248.425781 141.953125 244.640625 141.730469 C 238.964844 141.394531 231.804688 141.953125 223.460938 143.402344 C 223.3125 143.441406 223.125 143.441406 222.976562 143.476562 C 215.707031 137.273438 207.25 129.730469 200.128906 121.445312 C 202.058594 116.019531 203.6875 111.078125 204.988281 106.65625 C 207.953125 96.550781 209.253906 89.042969 208.957031 83.769531 C 208.808594 80.90625 208.214844 78.160156 207.210938 75.59375 C 206.25 73.140625 204.949219 70.914062 203.28125 68.945312 C 201.648438 67.011719 199.757812 65.414062 197.679688 64.226562 C 195.492188 62.960938 193.152344 62.21875 190.742188 61.957031 C 186.625 61.550781 182.582031 62.738281 179.355469 65.339844 C 176.128906 67.941406 173.789062 71.804688 172.492188 76.710938 C 170.339844 84.882812 170.675781 93.429688 173.457031 102.125 C 175.71875 109.144531 179.6875 116.464844 185.253906 123.859375 C 184.660156 125.417969 184.027344 127.054688 183.359375 128.761719 C 177.90625 142.734375 172.34375 155.292969 170.453125 159.453125 C 168.003906 160.457031 165.480469 161.535156 162.960938 162.648438 C 152.980469 167.070312 144.855469 171.34375 138.773438 175.320312 C 134.878906 177.882812 131.875 180.296875 129.535156 182.710938 C 126.421875 185.945312 124.601562 189.101562 124.011719 192.371094 C 123.492188 195.195312 123.453125 200.660156 129.242188 205.453125 C 134.65625 209.945312 139.773438 211.320312 144.003906 211.320312 C 146.191406 211.320312 148.160156 210.949219 149.828125 210.429688 C 154.945312 208.871094 159.84375 205.226562 164.40625 199.582031 C 167.707031 195.53125 170.898438 190.328125 173.9375 184.199219 C 176.609375 178.738281 178.6875 173.460938 180.023438 169.746094 C 190.964844 165.398438 199.792969 162.464844 200.5 162.238281 C 201.128906 162.054688 209.363281 159.527344 219.34375 157.445312 C 222.457031 160.085938 225.167969 162.390625 227.242188 164.320312 C 232.472656 169.152344 238.484375 171.976562 244.640625 172.53125 C 245.308594 172.605469 246.011719 172.605469 246.679688 172.605469 C 251.652344 172.605469 256.363281 171.007812 259.777344 168.109375 C 262.445312 165.84375 264.152344 162.945312 264.746094 159.75 C 265.375 156.257812 264.597656 152.726562 262.519531 149.570312 C 260.628906 146.894531 257.921875 144.851562 254.285156 143.515625 Z M 162.03125 178.664062 C 159.472656 183.863281 156.800781 188.175781 154.128906 191.445312 C 151.273438 194.9375 148.457031 197.164062 145.933594 197.945312 C 144.261719 198.464844 141.59375 198.726562 137.550781 195.382812 C 137.179688 195.085938 136.992188 194.863281 136.917969 194.75 C 137.03125 194.417969 137.402344 193.5625 138.664062 192.1875 C 140.21875 190.515625 142.484375 188.65625 145.449219 186.652344 C 149.863281 183.679688 155.652344 180.519531 162.738281 177.175781 C 162.515625 177.734375 162.292969 178.214844 162.03125 178.664062 Z M 185.140625 80.128906 C 185.660156 78.195312 186.847656 75.039062 189.148438 75.039062 C 189.222656 75.039062 189.332031 75.039062 189.40625 75.039062 C 191.820312 75.296875 195.527344 78.457031 195.863281 84.476562 C 196.011719 87.371094 195.378906 94.023438 190.707031 108.515625 C 185.328125 99.410156 182.582031 89.75 185.140625 80.128906 Z M 196.492188 149.832031 L 196.417969 149.867188 C 196.121094 149.980469 192.78125 151.054688 187.699219 152.878906 C 189.851562 147.824219 192.414062 141.730469 194.933594 135.265625 C 198.902344 139.425781 203.019531 143.328125 206.992188 146.933594 C 200.945312 148.457031 196.789062 149.71875 196.492188 149.832031 Z M 251.800781 157.484375 C 251.800781 157.558594 251.652344 157.820312 251.242188 158.191406 C 249.316406 159.824219 243.15625 161.164062 236.332031 154.957031 C 239.1875 154.734375 241.746094 154.699219 243.972656 154.808594 C 249.277344 155.105469 251.207031 156.371094 251.503906 156.816406 C 251.761719 157.261719 251.800781 157.484375 251.800781 157.484375 Z M 251.800781 157.484375 " fill-opacity="1" fill-rule="nonzero"/></svg>